<svg width="800" height="111" viewBox="0 0 800 111" fill="none" xmlns="http://www.w3.org/2000/svg">
<path d="M0 19C0 8.50659 8.50659 0 19 0H781C791.493 0 800 8.50659 800 19V49C800 59.4934 791.493 68 781 68H19C8.5066 68 0 59.4934 0 49V19Z" fill="white"/>
<path d="M302 59H507V92C507 102.493 498.493 111 488 111H321C310.507 111 302 102.493 302 92V59Z" fill="white"/>
<path d="M525 68C515.059 68 507 76.5066 507 87V68H525Z" fill="white"/>
<path d="M284 68C293.941 68 302 76.5066 302 87V68H284Z" fill="white"/>
</svg>
