<svg width="214" height="197" viewBox="0 0 214 197" fill="none" xmlns="http://www.w3.org/2000/svg">
<path fill-rule="evenodd" clip-rule="evenodd" d="M0 19C0 8.50659 8.50659 0 19 0H164C174.493 0 183 8.50659 183 19V42C183 49.8803 188.345 56.5779 195.788 59.0161C197.614 59.0906 199.373 59.4227 201.03 59.977C201.352 59.9923 201.675 60 202 60H201.099C208.601 62.5409 214 69.6399 214 78V90C214 100.493 205.493 109 195 109H201C191.059 109 183 117.507 183 128V150C183 160.493 174.493 169 164 169H139.222C132.115 171.541 127 178.64 127 187V184.099C124.459 191.601 117.36 197 109 197H19C8.50659 197 0 188.493 0 178V169V144V109V99V75V59V19Z" fill="white"/>
</svg>
