<svg width="301" height="144" viewBox="0 0 301 144" fill="none" xmlns="http://www.w3.org/2000/svg">
<path fill-rule="evenodd" clip-rule="evenodd" d="M19 0C8.50659 0 0 8.50659 0 19V92V125C0 135.493 8.50659 144 19 144H134C144.493 144 153 135.493 153 125V129C153 120.64 158.115 113.541 165.222 111H223C231.36 111 238.459 105.601 241 98.0989V99C241 98.6748 241.008 98.3516 241.023 98.0304C241.577 96.3731 241.909 94.6139 241.984 92.7883C243.797 87.2542 247.964 82.8798 253.222 81H282C292.493 81 301 72.4934 301 62V58C301 47.5066 292.493 39 282 39H261C250.507 39 242 30.9411 242 21V19C242 8.50659 233.493 0 223 0H19Z" fill="white"/>
</svg>
