<svg width="214" height="197" viewBox="0 0 214 197" fill="none" xmlns="http://www.w3.org/2000/svg">
<path d="M0 19C0 8.50659 8.50659 0 19 0H164C174.493 0 183 8.50659 183 19V42C183 49.8803 188.345 56.5779 195.788 59.0161C197.614 59.0906 199.373 59.4227 201.03 59.977C201.352 59.9923 201.675 60 202 60H201.099C208.601 62.541 214 69.6399 214 78V90C214 100.493 205.493 109 195 109C184 109.5 183 117.507 183 128V150C183 160.493 174.493 169 164 169H139.222C132.115 171.541 127 178.64 127 187C124.459 194.502 117.36 197 109 197H19C8.50659 197 0 188.493 0 178V19Z" fill="white"/>
</svg>
